<svg height="512" viewBox="0 0 64 64" width="512" xmlns="http://www.w3.org/2000/svg"><path d="m56 25a4 4 0 0 0 4-4v-12a4 4 0 0 0 -4-4h-22a4 4 0 0 0 -4 4v12a4 4 0 0 0 4 4h1v3a1 1 0 0 0 1.555.832l5.745-3.832zm-14.555-1.832-4.445 2.963v-2.131a1 1 0 0 0 -1-1h-2a2 2 0 0 1 -2-2v-12a2 2 0 0 1 2-2h22a2 2 0 0 1 2 2v12a2 2 0 0 1 -2 2h-14a1.006 1.006 0 0 0 -.555.168z"/><path d="m35 10h2v2h-2z"/><path d="m39 10h16v2h-16z"/><path d="m35 14h20v2h-20z"/><path d="m35 18h20v2h-20z"/><path d="m39.5 34.237a17.95 17.95 0 0 0 .5-4.237q0-.532-.03-1.058l-2 .116c.018.311.027.626.027.942a15.852 15.852 0 0 1 -.445 3.763z"/><path d="m35 47v9a3 3 0 0 0 6 0v-8.7l13.122 3.5a2.993 2.993 0 0 0 5.878-.8v-18a2.993 2.993 0 0 0 -5.878-.8l-14.253 3.8h-4.869a6 6 0 0 0 0 12zm4 9a1 1 0 0 1 -2 0v-9h2zm18-25a1 1 0 0 1 1 1v18a1 1 0 0 1 -2 0v-18a1 1 0 0 1 1-1zm-3 17.7-13-3.468v-8.464l13-3.468zm-19-11.7h4v8h-4a4 4 0 0 1 0-8z"/><path d="m28.353 13.154a17.992 17.992 0 0 0 -16.025 32.008 5.723 5.723 0 0 1 2.672 4.838v8a1 1 0 0 0 1 1h1v2h2v-2h2v2h2v-2h2v2h2v-2h1a1 1 0 0 0 1-1v-8a5.757 5.757 0 0 1 1.119-3.4l-1.607-1.19a7.76 7.76 0 0 0 -1.446 3.59h-4.066v-9.08a7 7 0 0 0 6-6.92h-2a5 5 0 0 1 -10 0h-2a7 7 0 0 0 6 6.92v9.08h-4.064a7.722 7.722 0 0 0 -3.536-5.524 15.9 15.9 0 0 1 -7.24-15.8 16.008 16.008 0 0 1 21.487-12.651zm-11.353 43.846v-2h10v2zm0-4v-2h10v2z"/><path d="m22 18a11.985 11.985 0 0 1 3.692.579l.616-1.9a14.021 14.021 0 0 0 -16.73 6.862l1.773.925a11.975 11.975 0 0 1 10.649-6.466z"/><path d="m8.165 27.847 1.976.306a11.938 11.938 0 0 1 .438-1.846l-1.9-.614a14.018 14.018 0 0 0 -.514 2.154z"/></svg>