<svg id="Image" height="512" viewBox="0 0 64 64" width="512" xmlns="http://www.w3.org/2000/svg"><g><path d="m23 30.136c0 3.38 3.575 7.893 8.501 10.73.308.178.689.178.998 0 4.926-2.837 8.501-7.35 8.501-10.73 0-3.336-2.347-5.136-4.555-5.136-1.865 0-3.416 1.337-4.444 3.042-1.027-1.705-2.578-3.042-4.445-3.042-2.208 0-4.556 1.8-4.556 5.136zm4.556-3.136c1.508 0 2.897 1.891 3.491 3.758.132.415.518.697.953.697s.82-.282.953-.696c.595-1.868 1.986-3.759 3.492-3.759 1.239 0 2.555 1.099 2.555 3.136 0 2.216-2.606 6.008-7 8.701-4.394-2.693-7-6.484-7-8.701 0-2.037 1.316-3.136 2.556-3.136z"/><path d="m58 34.184v-.184c0-2.097-2.124-3.582-4.116-2.78-.918-3.386-5.884-2.687-5.884.78v.184c-2.023-.721-4 .812-4 2.816v10.174c-1.272-1.304-1.87-3.174-4-3.174-2.376 0-3.797 2.65-2.534 4.604h-.001c4.809 7.403 5.111 8.388 6.707 9.982 1.179 1.179 1.828 2.746 1.828 4.414 0 1.323 2 1.324 2 0 0-4.191-2.534-5.559-3.824-7.585-.064-.1-5.152-8.088-5.025-7.888-.626-1.147.873-2.071 1.628-1.154l3.221 3.981v.646c0 1.323 2 1.324 2 0v-14c0-1.323 2-1.323 2 0v9c0 .552.447 1 1 1s1-.448 1-1v-12c0-1.323 2-1.323 2 0v12c0 .552.447 1 1 1s1-.448 1-1v-10c0-1.323 2-1.323 2 0v10c0 .552.447 1 1 1s1-.448 1-1v-7c0-1.323 2-1.323 2 0v12.814c0 3.929-2 4.927-2 9.371v1.815c0 1.323 2 1.324 2 0v-1.814c0-3.89 2-4.972 2-9.371v-12.815c0-1.997-1.97-3.539-4-2.816z"/><path d="m61 16c-4.181 0-5.572 2.541-7.585 3.825l-7.886 5.023c-.001 0-.002.001-.003.001-1.135.619-2.085-.862-1.154-1.628l3.982-3.221h.646c1.324 0 1.323-2 0-2h-14c-1.323 0-1.323-2 0-2h9c1.324 0 1.323-2 0-2h-12c-1.323 0-1.323-2 0-2h12c1.324 0 1.323-2 0-2h-10c-1.323 0-1.323-2 0-2h10c1.324 0 1.323-2 0-2h-7c-1.323 0-1.323-2 0-2h12.814c3.941 0 4.947 2 9.371 2h1.815c1.324 0 1.323-2 0-2h-1.814c-3.921 0-4.936-2-9.371-2h-12.815c-1.997 0-3.539 1.97-2.816 4h-.184c-2.097 0-3.582 2.124-2.78 4.116-3.386.918-2.687 5.884.78 5.884h.184c-.721 2.023.812 4 2.816 4h10.175c-1.31 1.277-3.175 1.865-3.175 4 0 2.374 2.633 3.789 4.604 2.535l7.886-5.023c2.24-1.429 3.162-3.512 6.51-3.512 1.324 0 1.323-2 0-2z"/><path d="m6 29.816v.184c0 2.097 2.124 3.582 4.116 2.78.918 3.386 5.884 2.687 5.884-.78v-.184c2.023.721 4-.812 4-2.816v-10.174c1.272 1.304 1.87 3.174 4 3.174 2.395 0 3.785-2.668 2.534-4.604h.001c-4.8-7.388-5.101-8.376-6.707-9.982-1.179-1.179-1.828-2.746-1.828-4.414 0-1.323-2-1.324-2 0 0 2.202.857 4.272 2.414 5.829 1.346 1.346 6.499 9.745 6.436 9.645.627 1.15-.869 2.075-1.628 1.154l-3.222-3.982v-.646c0-1.323-2-1.324-2 0v14c0 1.323-2 1.323-2 0v-9c0-1.323-2-1.324-2 0v12c0 1.323-2 1.323-2 0v-12c0-1.323-2-1.324-2 0v10c0 1.323-2 1.323-2 0v-10c0-1.323-2-1.324-2 0v7c0 1.323-2 1.323-2 0v-12.814c0-1.323.249-2.616.74-3.843l.377-.941c.586-1.466.883-3.009.883-4.588v-1.814c0-1.323-2-1.324-2 0v1.814c0 1.323-.249 2.616-.74 3.844l-.377.941c-.586 1.465-.883 3.008-.883 4.587v12.814c0 1.997 1.97 3.539 4 2.816z"/><path d="m32 48h-.184c.721-2.023-.812-4-2.816-4h-10.175c1.31-1.277 3.175-1.865 3.175-4 0-1.654-1.346-3-3-3-1.541 0-1.667.696-9.489 5.489-2.241 1.428-3.163 3.511-6.511 3.511-1.324 0-1.323 2 0 2 2.201 0 4.271-.857 5.828-2.414 1.347-1.346 9.746-6.5 9.646-6.436.149-.081.287-.15.526-.15.927 0 1.367 1.17.628 1.778l-3.982 3.222h-.646c-1.324 0-1.323 2 0 2h14c1.323 0 1.323 2 0 2h-9c-1.324 0-1.323 2 0 2h12c1.323 0 1.323 2 0 2h-12c-1.324 0-1.323 2 0 2h10c1.323 0 1.323 2 0 2h-10c-1.324 0-1.323 2 0 2h7c1.323 0 1.323 2 0 2h-12.814c-1.322 0-2.615-.249-3.844-.741l-.942-.375c-1.464-.587-3.007-.884-4.586-.884h-1.814c-.553 0-1 .448-1 1s.447 1 1 1h1.814c1.322 0 2.615.249 3.844.741l.942.375c1.464.587 3.007.884 4.586.884h12.814c1.997 0 3.539-1.97 2.816-4h.184c2.1 0 3.581-2.128 2.78-4.116 3.386-.918 2.687-5.884-.78-5.884z"/></g></svg>