<?xml version="1.0" encoding="iso-8859-1"?>
<!-- Generator: Adobe Illustrator 19.0.0, SVG Export Plug-In . SVG Version: 6.00 Build 0)  -->
<svg version="1.1" id="Capa_1" xmlns="http://www.w3.org/2000/svg" xmlns:xlink="http://www.w3.org/1999/xlink" x="0px" y="0px"
	 viewBox="0 0 511.997 511.997" style="enable-background:new 0 0 511.997 511.997;" xml:space="preserve">
<g>
	<g>
		<circle cx="356.577" cy="212.951" r="9.101"/>
	</g>
</g>
<g>
	<g>
		<path d="M480.328,78.043c-20.162-23.525-48.012-39.252-78.42-44.286c-4.084-0.674-7.949,2.088-8.626,6.176
			c-0.676,4.086,2.088,7.948,6.175,8.625c56.456,9.346,97.478,57.73,97.54,115.046c0.103,100.905-65.769,177.391-121.047,223.785
			c-52.961,44.451-106.642,70.619-119.656,76.65c-9.512-4.376-40.697-19.417-77.433-44.46
			c16.702-17.237,37.344-24.121,61.469-20.479c63.611,9.608,119.337-27.077,133.653-78.542c1.11-3.99-1.225-8.126-5.216-9.236
			c-3.993-1.113-8.127,1.226-9.237,5.217c-11.052,39.729-55.799,76.965-116.96,67.729c-31.961-4.826-59.884,6.221-80.747,31.948
			c-1.309,1.614-1.889,3.699-1.603,5.758c0.287,2.059,1.414,3.905,3.114,5.102c40.324,28.364,87.738,52.694,92.971,52.694
			c1.014,0,2.028-0.206,2.978-0.617c58.163-25.151,159.643-90.642,212.934-178.557c26.445-43.625,39.828-89.72,39.78-137.006
			C511.965,132.212,500.717,101.832,480.328,78.043z"/>
	</g>
</g>
<g>
	<g>
		<path d="M431.514,225.463c-0.599-7.511-9.205-9.771-12.037-10.514c-19.854-5.203-22.976-5.158-24.672-10.65
			c-4.536-20.082-23.149-34.114-43.881-32.869c-21.148,1.283-38.168,18.193-39.589,39.329c-0.601,8.869,2.767,16.001-2.836,26.872
			c-4.745-38.346-27.382-70.707-68.087-86.855c-51.497-20.429-57.1-46.365-57.368-47.794c-0.546-6.069-8.161-9.123-12.841-4.275
			c-0.97,1.005-18.923,20.025-19.213,49.5c-2.593-4.548-4.448-9.028-5.76-12.887c-3.704-10.891-19.025-11.061-22.973-0.307
			c-17.326,47.13-16.162,83.699,3.559,111.795c29.206,41.612,92.649,51.158,97.483,68.535c1.999,7.186-9.045,19.292-14.57,24.281
			c-30.246,23.506-69.243,25.233-105.392,13.876c-0.193-0.061-0.388-0.113-0.585-0.158c-1.225-0.278-2.431-0.461-3.609-0.547
			c-55.763-58.371-84.073-121.847-84.142-188.699C14.97,132.91,27.084,103.58,49.11,81.507
			c54.196-54.308,145.77-42.655,184.15,24.873c0.322,0.566,0.71,1.078,1.151,1.529c2.085,2.396,10.213,10.812,21.515,10.811
			c0.008,0,0.017,0,0.024,0c11.789-0.012,21.109-9.661,22.653-12.386c18.307-32.36,51.184-54.248,87.945-58.547
			c4.114-0.481,7.06-4.206,6.579-8.321c-0.481-4.114-4.199-7.053-8.321-6.579c-41.233,4.821-78.131,29.235-98.863,65.362
			c-1.637,1.809-5.812,5.465-10.01,5.47c-3.665,0.004-7.733-2.896-10.046-5.475c-23.504-40.752-67.152-66.017-114.143-66.017
			c-0.044,0-0.089,0-0.132,0C96.42,32.262,63.349,45.999,38.49,70.911C13.634,95.821-0.036,128.919,0,164.111
			c0.075,71.769,30.56,139.547,90.611,201.451c1.652,1.703,4.009,2.519,6.367,2.214c1.499-0.198,2.813,0.343,4.513,0.847
			c87.27,25.853,143.981-29.55,136.262-57.301c-11.832-42.527-147.807-32.075-103.93-163.953
			c4.49,10.29,12.014,22.298,24.443,31.193c5.936,4.248,13.86-1.684,11.444-8.58c-7.785-22.216-1.715-40.136,4.112-50.642
			c7.29,12.443,23.811,30.604,61.058,45.38c27.033,10.724,45.22,29.064,54.056,54.51c6.706,19.312,5.298,35.764,5.283,35.927
			c-0.266,2.871,1.138,5.642,3.61,7.125c2.472,1.481,5.576,1.418,7.985-0.168c15.227-10.029,22.942-26.849,20.642-44.996
			c-0.224-1.754-0.275-3.552-0.153-5.349c0.901-13.41,12.115-24.553,25.529-25.366c13.731-0.833,25.981,8.682,28.532,22.126
			c0.038,0.198,0.083,0.395,0.136,0.587c1.225,4.835,6.516,13.251,19.238,16.168l7.135,1.87l-13.208,5.138
			c-15.33,5.327-29.735,23.814-31.265,50.825c-0.235,4.136,2.928,7.68,7.065,7.914c4.144,0.233,7.679-2.929,7.913-7.064
			c0.286-5.044,1.117-9.792,2.471-14.108c3.066-10.156,9.232-19.707,19.108-23.528l22.726-8.842
			C426.975,235.463,431.982,231.33,431.514,225.463z"/>
	</g>
</g>
<g>
</g>
<g>
</g>
<g>
</g>
<g>
</g>
<g>
</g>
<g>
</g>
<g>
</g>
<g>
</g>
<g>
</g>
<g>
</g>
<g>
</g>
<g>
</g>
<g>
</g>
<g>
</g>
<g>
</g>
</svg>
