<?xml version="1.0" encoding="iso-8859-1"?>
<!-- Generator: Adobe Illustrator 19.0.0, SVG Export Plug-In . SVG Version: 6.00 Build 0)  -->
<svg version="1.1" id="Capa_1" xmlns="http://www.w3.org/2000/svg" xmlns:xlink="http://www.w3.org/1999/xlink" x="0px" y="0px"
	 viewBox="0 0 511.999 511.999" style="enable-background:new 0 0 511.999 511.999;" xml:space="preserve">
<g>
	<g>
		<path d="M507.312,210.932c-0.786-4.061-4.715-6.714-8.779-5.931c-4.061,0.787-6.717,4.718-5.931,8.779
			c2.453,12.669,3.88,25.591,4.282,38.545h-66.117c16.822-24.317,22.347-29.964,21.817-40.635
			c-0.159-26.093-32.774-38.54-50.1-18.592c-1.961-12.311-4.472-24.357-7.495-36.023c24.624-4.059,48.41-9.211,71.02-15.408
			c6.907,12.226,12.761,25.026,17.403,38.214c1.372,3.903,5.65,5.949,9.552,4.581c3.903-1.373,5.954-5.651,4.581-9.553
			C471.596,101.169,411.427,40.32,332.687,15.758c-41.126-12.85-76.401-11.662-76.401-11.662
			c-242.506,0-352.852,312.407-152.021,461.331c1.398,1.038,0.511,0.402,2.195,1.619c0.131,0.095,0.83,0.59,0.83,0.59
			c0.999,0.713,1.986,1.433,3.3,2.346c36.148,25.083,79.76,38.685,85.629,37.87c3.829-0.576,6.446-3.753,6.446-7.424
			c0-6.708,0-55.019,0-61.722c0-21.944-5.889-46.965-19.916-66.789C70.581,209.786,74.962,217.943,74.962,211.89
			c0-9.666,9.665-16.155,18.535-12.698c4.853,1.889,5.637,4.077,15.296,18.041c0,0,32.151,46.475,32.404,46.841
			c0.001,0.002,0.002,0.004,0.003,0.005c0.14,0.203,43.908,63.476,44.057,63.672c0.687,0.904,17.139,22.143,45.714,22.143
			c6.169,0,44.465,0,50.621,0c28.575,0,45.026-21.239,45.714-22.143c0.088-0.115,0.172-0.233,0.252-0.352
			c93.532-135.199,86.368-126.206,91.513-128.208c12.455-4.856,23.681,9.411,16.127,20.393
			c-0.156,0.226-107.782,155.794-107.931,156.024c-5.221,8.15-17.367,30.614-17.367,63.098c0,6.742,0,54.733,0,61.722
			c0,0.264,0.013,0.527,0.047,0.84c0.014,0.125,0.082,0.563,0.137,0.809c0.03,0.139,0.138,0.536,0.222,0.782
			c0.069,0.204,0.181,0.488,0.303,0.75c0.112,0.24,0.219,0.446,0.386,0.717c0.141,0.233,0.206,0.351,0.493,0.718
			c0.178,0.234,0.342,0.434,0.636,0.724c0.097,0.095,0.404,0.373,0.602,0.531c0.161,0.125,0.15,0.113,0.15,0.113
			c0.683,0.516,1.453,0.908,2.145,1.135c0.979,0.327,2.102,0.465,3.23,0.337c0.171-0.02,0.58-0.087,0.863-0.154
			c28.658-6.62,64.544-23.02,94.144-46.07c3.264-2.542,3.849-7.249,1.308-10.513c-2.542-3.264-7.251-3.85-10.513-1.308
			c-23.026,17.933-49.74,32.073-79.169,40.784v-2.512c9.404-8.031,17.775-17.27,25.209-27.162l-0.001-0.001
			c18.316-24.052,32.035-54.989,40.829-83.869c23.246,3.777,45.641,8.53,66.997,14.227c-8.285,12.687-17.773,24.619-28.349,35.587
			c-2.872,2.979-2.786,7.72,0.192,10.592c2.979,2.873,7.721,2.786,10.593-0.192C498.177,377.334,523.196,292.956,507.312,210.932z
			 M263.777,19.45c56.467,5.171,94.643,69.098,112.163,125.381c-36.098,5.143-73.835,7.935-112.163,8.259V19.45z M170.504,380.554
			c0.027,0.04,0.055,0.079,0.083,0.118l1.442,2.086c18.394,26.62,15.65,58.953,15.65,84.776
			c-24.182-25.071-40.742-59.615-51.051-92.74c9.059-1.29,18.233-2.435,27.516-3.432L170.504,380.554z M154.473,357.38
			c-7.406,0.867-14.746,1.823-22.009,2.877c-4.036-15.341-7.175-31.464-9.3-48.134L154.473,357.38z M187.68,488.106v2.516
			C132.97,474.368,85.783,438.969,54.637,391.3c21.352-5.697,43.747-10.451,66.988-14.227
			C133.95,417.69,155.402,460.588,187.68,488.106z M105.747,286.944c1.667,26.965,5.863,52.698,11.808,75.614
			c-24.678,4.064-48.423,9.223-71.019,15.421c-19.219-34.036-29.7-71.88-30.861-110.671h76.489L105.747,286.944z M110.087,193.104
			c-13.388-15.416-37.987-12.155-47.114,6.006l6.729,3.293l-6.78-3.189c-4.277,8.701-4.148,19.815,2.122,28.894l16.753,24.218
			H15.674c1.196-39.386,11.802-77.15,30.761-110.693c22.643,6.213,46.466,11.376,71.131,15.442
			C114.46,169.082,111.971,181.257,110.087,193.104z M54.64,128.333C86.878,79.05,136.173,43.584,191.902,27.966
			c-18.96,14.947-34.436,35.469-46.203,56.78c-0.376,0.679-0.75,1.36-1.121,2.048c-0.37,0.683-0.735,1.37-1.101,2.061
			c-0.291,0.552-0.581,1.105-0.87,1.66c-0.435,0.836-0.865,1.676-1.294,2.52c-0.197,0.392-0.395,0.783-0.59,1.176
			c-0.508,1.017-1.013,2.038-1.511,3.067c-0.093,0.192-0.185,0.385-0.277,0.575c-6.669,13.845-12.463,28.835-17.285,44.686
			C98.463,138.768,76.017,134.035,54.64,128.333z M248.794,19.451v133.637c-38.329-0.323-76.067-3.115-112.163-8.258
			C153.834,89.563,191.156,25.182,248.794,19.451z M122.728,211.036c2.202-18.651,5.575-35.884,9.729-51.66
			c37.424,5.432,76.581,8.39,116.337,8.72v19.513c-32.456,2.714-58.242,30.895-56.685,64.715h-40.816L122.728,211.036z
			 M207.252,327.609c-0.001-0.001-0.002-0.001-0.002-0.001c-9.912-6.488-9.015-7.423-45.594-60.299h33.006
			c7.494,24.991,29.719,41.944,54.13,43.972v23.63h0.001C230.955,334.91,220.913,336.609,207.252,327.609z M210.633,267.514
			c-12.226-29.23,7.326-65.098,45.409-65.098c30.812,1.258,52.452,31.643,42.865,61.454
			C285.449,305.481,227.113,307.829,210.633,267.514z M314.361,319.88c-3.363,3.745-14.979,15.03-32.769,15.03h-17.816v-24.164
			c22.808-3.541,42.774-20.117,49.762-43.437h37.37C312.668,322.586,315.509,318.617,314.361,319.88z M361.274,252.324h-45.186
			c1.478-32.148-21.71-59.371-52.311-64.182v-20.047c39.755-0.331,78.912-3.289,116.338-8.72
			c4.345,16.498,7.633,33.833,9.734,51.646L361.274,252.324z M320.667,27.967C377.514,43.902,426.466,80.126,457.9,128.34
			c-21.373,5.699-43.816,10.43-67.001,14.2C378.086,100.435,355.51,55.437,320.667,27.967z M335.096,455.854L335.096,455.854
			c-3.247,4.079-6.626,7.968-10.213,11.686v-28.835c0-37.244,16.337-56.939,23.537-67.346c9.296,0.997,18.475,2.152,27.543,3.441
			C367.009,403.551,353.897,432.019,335.096,455.854z M380.131,360.26c-7.273-1.056-14.624-2.014-22.04-2.882l31.323-45.279
			C387.36,328.307,384.325,344.332,380.131,360.26z M466.019,377.974c-22.594-6.195-46.335-11.352-71.011-15.419
			c6.415-24.769,10.253-50.292,11.814-75.619l13.58-19.629h76.489C495.756,305.184,485.621,343.262,466.019,377.974z"/>
	</g>
</g>
<g>
</g>
<g>
</g>
<g>
</g>
<g>
</g>
<g>
</g>
<g>
</g>
<g>
</g>
<g>
</g>
<g>
</g>
<g>
</g>
<g>
</g>
<g>
</g>
<g>
</g>
<g>
</g>
<g>
</g>
</svg>
