<?xml version="1.0" encoding="iso-8859-1"?>
<!-- Generator: Adobe Illustrator 19.0.0, SVG Export Plug-In . SVG Version: 6.00 Build 0)  -->
<svg version="1.1" id="Capa_1" xmlns="http://www.w3.org/2000/svg" xmlns:xlink="http://www.w3.org/1999/xlink" x="0px" y="0px"
	 viewBox="0 0 512 512" style="enable-background:new 0 0 512 512;" xml:space="preserve">
<g>
	<g>
		<path d="M194.702,61.503c-15.519-31.135-61.549-24.864-68.51,8.965c-4.896-2.334-10.248-3.55-15.734-3.55
			c-27.093,0-44.744,28.65-32.68,52.862c19.715,39.552,71.449,42.626,86.835,42.626c2.368,0,3.76-0.073,3.911-0.081
			c2.14-0.118,4.138-1.114,5.52-2.752C175.83,157.458,217.504,107.252,194.702,61.503z M164.238,146.836
			c-13.57-0.048-56.945-2.747-72.525-34c-5.159-10.356-0.932-22.98,9.421-28.142c2.938-1.464,6.074-2.206,9.323-2.206
			c4.204,0,8.274,1.244,11.77,3.598c0.489,0.329,1.01,0.599,1.55,0.807c0.94,0.378,2.889,1.023,5.219,1.023
			c1.887,0,3.663-0.408,5.285-1.214c4.23-2.11,5.861-6.193,6.395-8.005c0.204-0.63,0.33-1.297,0.367-1.989
			c1.148-21.52,30.125-27.518,39.724-8.259C196.388,99.791,171.792,136.687,164.238,146.836z"/>
	</g>
</g>
<g>
	<g>
		<path d="M500.922,207.333c-0.06-0.058-0.12-0.115-0.182-0.172c-15.694-14.457-36.671-12.942-54.746,3.958l-79.706,66.1
			c-4.569-9.791-14.235-19.468-32.362-19.468H261.67c-15.19,0-28.559,4.836-30.095,5.411c-0.064,0.024-0.129,0.049-0.193,0.075
			l-50.728,20.447l-0.427-1.133c-2.505-6.644-8.958-11.109-16.057-11.109c-2.07,0-4.106,0.372-6.052,1.106L11.932,327.635
			c-4.605,1.734-8.256,5.156-10.285,9.638c-2.027,4.478-2.189,9.479-0.455,14.083l50.921,135.124
			c2.685,7.132,9.61,11.925,17.231,11.926h0.001c2.218,0,4.402-0.399,6.491-1.186l105.842-39.886
			c0.001-0.001,0.002-0.001,0.003-0.001l40.339-15.202c4.29-1.616,7.694-4.806,9.584-8.981c1.891-4.176,2.042-8.839,0.426-13.127
			l-0.694-1.844l21.448-8.433c0.015-0.005,0.029-0.011,0.044-0.017l0.728-0.286c2.167-0.805,9.89-3.322,21.689-3.322h9.86
			c4.299,0,7.785-3.486,7.785-7.785s-3.486-7.785-7.785-7.785h-9.86c-14.119,0-23.728,3.029-27.204,4.331
			c-0.039,0.015-0.079,0.03-0.118,0.046l-0.756,0.298c-0.013,0.005-0.028,0.01-0.042,0.017l-21.279,8.365l-34.074-90.417
			l-5.627-14.934l50.97-20.543c0.865-0.321,12.128-4.393,24.555-4.393h72.257c18.117,0,20.051,15.05,20.252,18.008
			c0.002,0.038,0.011,0.074,0.013,0.111c0.004,0.056,0.001,0.109,0.006,0.165c0.008,0.103,0.651,10.575-4.931,16.665
			c-3.015,3.292-7.461,4.891-13.591,4.891h-60.862c-4.299,0-7.785,3.486-7.785,7.785c0,4.299,3.486,7.785,7.785,7.785h60.862
			c10.59,0,19.025-3.345,25.07-9.943c7.34-8.01,8.831-18.415,9.036-24.243l86.229-71.499c0.089-0.075,0.177-0.151,0.264-0.229
			l0.351-0.325c8.53-7.976,21.253-15.125,33.471-3.964c13.814,13.696,1.098,30.026-1.824,33.404L378.838,369.515
			c-0.002,0.002-0.004,0.004-0.006,0.007c-0.062,0.066-0.123,0.133-0.183,0.201c-15.261,17.496-35.908,20.401-44.273,20.828h-12.941
			c-4.299,0-7.785,3.486-7.785,7.785c0,4.299,3.486,7.785,7.785,7.785h13.132c0.125,0,0.248-0.003,0.372-0.009
			c10.222-0.489,36.057-4.007,55.357-26.056l109.467-117.615c0.057-0.061,0.113-0.124,0.168-0.187
			C509.683,251.076,520.865,226.926,500.922,207.333z M70.346,482.649c-0.327,0.124-0.664,0.186-1.002,0.186
			c-0.979-0.001-2.181-0.57-2.66-1.844L15.762,345.867c-0.361-0.959-0.111-1.774,0.07-2.175c0.182-0.4,0.628-1.124,1.588-1.486
			l98.557-37.141l52.924,140.444L70.346,482.649z M217.461,425.514c0.192,0.509,0.085,0.94-0.039,1.213
			c-0.125,0.274-0.379,0.641-0.891,0.834l-33.059,12.457l-52.924-140.443l33.061-12.459c0.188-0.071,0.371-0.105,0.561-0.105
			c0.547,0,1.22,0.319,1.487,1.03L217.461,425.514z"/>
	</g>
</g>
<g>
	<g>
		<path d="M436.441,105.532c-0.003-0.152-0.01-0.303-0.023-0.456c-0.009-0.124-0.022-0.246-0.036-0.367
			c-0.016-0.121-0.034-0.243-0.056-0.363c-0.026-0.151-0.056-0.299-0.09-0.446c-0.011-0.049-0.017-0.098-0.029-0.146
			c-0.025-0.099-0.058-0.195-0.084-0.293c-0.012-0.042-0.023-0.085-0.036-0.127c-4.334-16.462-15.506-30.23-30.724-37.816
			c-18.669-9.306-40.973-8.006-58.463,3.34c-0.139,0.034-0.315,0.074-0.481,0.099c-0.076-0.138-0.152-0.3-0.217-0.459
			c-1.472-20.79-13.862-39.376-32.525-48.678c-14.107-7.03-30.104-8.148-45.053-3.144c-14.944,5.003-27.047,15.527-34.079,29.633
			c-16.19,32.484-14.999,71.964,3.442,114.175c13.664,31.268,31.78,52.902,32.545,53.809c1.383,1.638,3.38,2.633,5.521,2.752
			c0.327,0.018,2.738,0.142,6.764,0.142c10.405,0,31.593-0.829,55.411-6.466c44.575-10.549,76.79-33.087,93.162-65.175
			c1.954-3.83,0.434-8.519-3.396-10.473c-3.828-1.953-8.519-0.433-10.473,3.396c-31.101,60.958-118.829,63.307-137.215,63.112
			c-5.055-6.529-18.107-24.462-28.203-47.69c-16.624-38.247-17.841-72.108-3.621-100.64c5.176-10.384,14.085-18.131,25.087-21.815
			c11.004-3.683,22.779-2.861,33.165,2.316c13.961,6.958,23.152,20.979,23.986,36.593c0.034,0.648,0.148,1.276,0.332,1.874
			c0.585,2.169,2.637,7.958,8.354,10.808c5.867,2.924,11.891,0.899,13.817,0.102c0.535-0.207,1.049-0.474,1.534-0.801
			c12.969-8.733,29.7-9.835,43.662-2.876c8.152,4.063,14.716,10.545,18.924,18.442l1.742,3.578l1.393,3.536
			c0.1,0.269,0.212,0.557,0.339,0.86l0.013,0.033c1.31,3.115,4.106,7.688,9.175,7.439c0.148-0.026,0.294-0.055,0.439-0.089
			c0.049-0.011,0.099-0.018,0.147-0.03c0.052-0.013,0.1-0.033,0.152-0.047c0.155-0.043,0.308-0.09,0.46-0.142
			c0.099-0.034,0.196-0.07,0.293-0.107c0.137-0.054,0.271-0.111,0.404-0.172c0.109-0.049,0.215-0.1,0.321-0.154
			c0.112-0.058,0.222-0.119,0.332-0.182c0.116-0.067,0.232-0.136,0.344-0.21c0.092-0.06,0.183-0.124,0.273-0.187
			c0.117-0.084,0.234-0.169,0.345-0.258c0.082-0.065,0.162-0.134,0.241-0.202c0.109-0.094,0.216-0.191,0.32-0.291
			c0.079-0.077,0.154-0.155,0.229-0.235c0.093-0.099,0.186-0.198,0.274-0.302c0.079-0.091,0.154-0.187,0.228-0.282
			c0.076-0.098,0.15-0.195,0.22-0.296c0.078-0.109,0.151-0.222,0.221-0.335c0.059-0.094,0.118-0.189,0.173-0.284
			c0.071-0.124,0.136-0.249,0.2-0.377c0.048-0.096,0.094-0.191,0.139-0.289c0.058-0.129,0.111-0.26,0.162-0.392
			c0.04-0.105,0.08-0.211,0.116-0.318c0.042-0.126,0.08-0.252,0.115-0.38c0.034-0.122,0.066-0.246,0.096-0.371
			c0.026-0.113,0.049-0.229,0.07-0.345c0.026-0.145,0.049-0.29,0.066-0.437c0.012-0.102,0.023-0.204,0.031-0.308
			c0.013-0.16,0.021-0.322,0.024-0.484c0.001-0.053,0.008-0.104,0.008-0.157C436.448,105.629,436.442,105.582,436.441,105.532z"/>
	</g>
</g>
<g>
</g>
<g>
</g>
<g>
</g>
<g>
</g>
<g>
</g>
<g>
</g>
<g>
</g>
<g>
</g>
<g>
</g>
<g>
</g>
<g>
</g>
<g>
</g>
<g>
</g>
<g>
</g>
<g>
</g>
</svg>
