<?xml version="1.0" encoding="iso-8859-1"?>
<!-- Generator: Adobe Illustrator 19.0.0, SVG Export Plug-In . SVG Version: 6.00 Build 0)  -->
<svg version="1.1" id="Capa_1" xmlns="http://www.w3.org/2000/svg" xmlns:xlink="http://www.w3.org/1999/xlink" x="0px" y="0px"
	 viewBox="0 0 512.075 512.075" style="enable-background:new 0 0 512.075 512.075;" xml:space="preserve">
<g transform="translate(0 -1)">
	<g>
		<g>
			<path d="M509.058,356.509c-6.837-14.736-23.644-21.994-39.058-16.867l-118.827,39.611
				c45.066-33.244,102.725-83.049,128.252-135.736c43.875-84.467,43.208-170.208-1.658-213.35
				C453.083,7.045,418.989-3.17,385.658,2.571c-34.536,6.306-64.671,27.206-82.679,57.342
				C284.97,29.776,254.835,8.876,220.299,2.571c-33.332-5.748-67.431,4.467-92.112,27.596
				c-44.862,43.142-45.529,128.883-1.766,213.129c18.325,34.232,42.835,64.771,72.288,90.072
				c-12.965-1.475-25.255-6.565-35.467-14.689c-15.334-12.237-34.365-18.913-53.984-18.938H92.34
				c-3.592-10.199-13.214-17.033-24.028-17.067H25.646c-14.132,0.015-25.585,11.468-25.6,25.6v179.2
				c0.015,14.132,11.468,25.585,25.6,25.6h42.667c7.24-0.02,14.13-3.123,18.942-8.533h214.017
				c12.521,0.001,24.801-3.443,35.496-9.954l159.95-97.363C510.584,388.765,515.895,371.245,509.058,356.509z M76.846,487.475
				c-0.006,4.71-3.823,8.527-8.533,8.533H25.646c-4.71-0.006-8.527-3.823-8.533-8.533v-179.2c0.006-4.71,3.823-8.527,8.533-8.533
				h42.667c4.71,0.006,8.527,3.823,8.533,8.533V487.475z M141.675,235.65c-40.354-77.696-41.021-155.329-1.658-193.183
				c20.801-19.403,49.493-27.937,77.517-23.054c32.375,5.316,60.029,27.146,77.875,61.462c1.615,2.633,4.482,4.237,7.571,4.237
				c3.089,0,5.956-1.605,7.571-4.237c17.846-34.317,45.5-56.146,77.875-61.462c28.022-4.877,56.711,3.655,77.513,23.054
				c39.367,37.854,38.7,115.487-1.762,193.396c-32.217,66.475-120.159,129.371-161.221,156.133
				c-0.924-0.604-1.866-1.243-2.794-1.858c2.674-10.219,1.123-21.083-4.302-30.146l-0.758-1.254
				c-9.285-15.387-25.928-24.813-43.9-24.862h-26.166C184.528,299.227,156.473,266.257,141.675,235.65z M494.708,372.772
				c-0.793,4.112-3.285,7.698-6.863,9.874l-159.954,97.367c-8.021,4.882-17.231,7.464-26.621,7.463H93.912V316.808h15.346
				c15.745,0.02,31.017,5.377,43.325,15.196c15.334,12.237,34.365,18.913,53.983,18.938H251.2
				c11.984,0.035,23.081,6.322,29.271,16.583l0.758,1.254c4.659,7.765,4.159,17.577-1.264,24.829H228.1
				c-16.848-0.017-33.322,4.971-47.329,14.333l-6.254,4.167c-2.552,1.684-4.009,4.605-3.817,7.656
				c0.191,3.052,2.001,5.768,4.744,7.119c2.743,1.352,5.999,1.132,8.536-0.576l6.254-4.167c11.208-7.489,24.387-11.48,37.867-11.466
				h75.85c4.585,0,9.141-0.739,13.491-2.188l157.958-52.654c6.083-2.026,12.779,0.079,16.608,5.221
				C494.52,364.404,495.501,368.66,494.708,372.772z"/>
			<path d="M179.246,77.875c4.713,0,8.533-3.82,8.533-8.533v-8.533c0-4.713-3.82-8.533-8.533-8.533s-8.533,3.82-8.533,8.533v8.533
				C170.712,74.054,174.533,77.875,179.246,77.875z"/>
			<path d="M179.246,94.942c-4.713,0-8.533,3.82-8.533,8.533v8.533c0,4.713,3.82,8.533,8.533,8.533s8.533-3.82,8.533-8.533v-8.533
				C187.779,98.762,183.958,94.942,179.246,94.942z"/>
			<path d="M162.179,77.875h-8.533c-4.713,0-8.533,3.82-8.533,8.533s3.821,8.533,8.533,8.533h8.533c4.713,0,8.533-3.821,8.533-8.533
				S166.892,77.875,162.179,77.875z"/>
			<path d="M204.846,77.875h-8.533c-4.713,0-8.533,3.82-8.533,8.533s3.82,8.533,8.533,8.533h8.533c4.713,0,8.533-3.821,8.533-8.533
				S209.558,77.875,204.846,77.875z"/>
		</g>
	</g>
</g>
<g>
</g>
<g>
</g>
<g>
</g>
<g>
</g>
<g>
</g>
<g>
</g>
<g>
</g>
<g>
</g>
<g>
</g>
<g>
</g>
<g>
</g>
<g>
</g>
<g>
</g>
<g>
</g>
<g>
</g>
</svg>
