<?xml version="1.0" encoding="iso-8859-1"?>
<!-- Generator: Adobe Illustrator 19.0.0, SVG Export Plug-In . SVG Version: 6.00 Build 0)  -->
<svg version="1.1" id="Capa_1" xmlns="http://www.w3.org/2000/svg" xmlns:xlink="http://www.w3.org/1999/xlink" x="0px" y="0px"
	 viewBox="0 0 512.049 512.049" style="enable-background:new 0 0 512.049 512.049;" xml:space="preserve">
<g transform="translate(0 -1)">
	<g>
		<g>
			<path d="M470.463,37.858c-29.249-28.83-70.55-41.882-111.054-35.096C317.346,9.583,281.1,36.191,256.029,78.266
				C230.954,36.191,194.709,9.583,152.642,2.758c-40.5-6.775-81.794,6.278-111.042,35.1
				c-54.533,54.613-55.175,163.408-1.696,270.517c7.28,15.288,15.921,29.891,25.818,43.631l0.166,0.245
				c13.851,19.196,29.137,37.314,45.727,54.199c0.194,0.226,0.399,0.442,0.616,0.646c35.315,35.513,73.677,67.861,114.645,96.671
				c17.465,12.378,40.843,12.378,58.308,0c40.981-28.82,79.358-61.177,114.689-96.698c0.194-0.175,0.353-0.364,0.53-0.556
				c16.793-17.084,32.245-35.436,46.218-54.893l0.151-0.222c9.679-13.494,18.14-27.821,25.283-42.813
				C525.638,201.266,524.996,92.47,470.463,37.858z M126.41,397.269c0.942-29.379,7.034-58.364,17.998-85.636
				c1.199-2.803,0.812-6.033-1.016-8.473c-1.828-2.44-4.819-3.719-7.846-3.356c-3.027,0.363-5.63,2.314-6.829,5.117
				c-9.691,23.991-15.953,49.228-18.602,74.967c-9.918-10.926-19.259-22.363-27.985-34.262
				c8.788-43.101,34.74-80.768,71.883-104.333c18.562,9.718,40.719,9.669,59.237-0.131c8.804,5.37,16.997,11.684,24.433,18.829
				c-18.176,5.829-32.459,20.013-38.414,38.148s-2.86,38.026,8.324,53.494c-12.491,11.885-32.878,38.496-36.345,87.227
				C156.276,426.069,141.017,412.132,126.41,397.269z M136.563,184.545c0-25.921,21.013-46.933,46.933-46.933
				s46.933,21.013,46.933,46.933c-0.029,25.908-21.025,46.904-46.933,46.933C157.575,231.479,136.563,210.466,136.563,184.545z
				 M256.029,274.145c23.564,0,42.667,19.103,42.667,42.667c-0.028,23.553-19.114,42.639-42.667,42.667
				c-23.564,0-42.667-19.103-42.667-42.667S232.465,274.145,256.029,274.145z M310.615,463.53
				c-3.554-18.073-11.215-35.088-22.39-49.73c-1.934-2.356-4.978-3.502-7.985-3.006c-3.008,0.496-5.522,2.56-6.596,5.413
				c-1.074,2.853-0.544,6.062,1.389,8.418c10.801,14.906,17.859,32.19,20.578,50.396c-7.232,5.42-14.078,10.402-20.311,14.829
				c-11.546,8.183-27,8.183-38.546,0c-6.233-4.425-13.077-9.407-20.307-14.826c2.719-18.207,9.776-35.493,20.578-50.399
				c1.934-2.357,2.463-5.566,1.389-8.418s-3.588-4.916-6.596-5.413c-3.008-0.496-6.052,0.649-7.985,3.006
				c-11.176,14.642-18.836,31.657-22.391,49.731c-4.462-3.484-9.015-7.113-13.659-10.889c0.193-51.854,20.977-78.456,31.667-88.709
				c21.486,16.817,51.67,16.817,73.156,0c10.691,10.254,31.474,36.856,31.667,88.71C319.64,456.404,315.087,460.033,310.615,463.53z
				 M401.946,379.912c-2.647-25.747-8.91-50.993-18.604-74.992c-1.195-2.811-3.8-4.77-6.833-5.135
				c-3.032-0.366-6.029,0.917-7.858,3.363c-1.829,2.446-2.211,5.684-1.001,8.488c10.987,27.271,17.079,56.265,17.999,85.651
				c-14.605,14.854-29.864,28.786-44.838,41.575v0c-3.468-48.734-23.854-75.345-36.345-87.23
				c11.143-15.411,14.258-35.216,8.384-53.303c-5.875-18.087-20.032-32.282-38.104-38.204c7.411-7.139,15.576-13.451,24.352-18.826
				c18.56,9.71,40.711,9.657,59.224-0.141c37.106,23.456,63.101,60.971,72.028,103.952
				C421.505,357.206,412.024,368.823,401.946,379.912z M281.629,184.545c0-25.921,21.013-46.933,46.933-46.933
				c25.921,0,46.933,21.013,46.933,46.933c-0.029,25.908-21.025,46.904-46.933,46.933
				C302.642,231.479,281.629,210.466,281.629,184.545z M456.688,301.166c-4.087,8.618-8.678,16.989-13.748,25.068
				c-11.562-39.021-36.182-72.884-69.735-95.916c18.691-18.185,24.481-45.891,14.637-70.039
				c-9.844-24.148-33.354-39.91-59.432-39.845s-49.508,15.945-59.232,40.142c-9.723,24.197-3.794,51.874,14.988,69.965
				c-10.143,6.906-19.493,14.911-27.88,23.867c-8.468-9.045-17.918-17.115-28.177-24.063c18.711-18.18,24.517-45.896,14.675-70.056
				c-9.842-24.161-33.362-39.93-59.451-39.86s-49.523,15.966-59.236,40.179s-3.758,51.898,15.051,69.976
				c-33.445,23.272-58.001,57.206-69.65,96.251c-5.257-8.332-10.008-16.974-14.226-25.878C4.975,200.216,4.333,99.329,53.675,49.916
				c20.738-20.506,48.769-31.939,77.933-31.787c6.13,0.001,12.25,0.496,18.3,1.479c40.988,6.646,75.963,35.15,98.488,80.267
				c1.603,2.69,4.502,4.338,7.633,4.338s6.031-1.648,7.633-4.338c22.521-45.113,57.496-73.621,98.479-80.267
				c35.084-5.921,70.878,5.352,96.237,30.308C507.721,99.329,507.079,200.216,456.688,301.166z"/>
			<path d="M85.363,94.945c4.713,0,8.533-3.821,8.533-8.533v-8.533c0-4.713-3.821-8.533-8.533-8.533s-8.533,3.82-8.533,8.533v8.533
				C76.829,91.125,80.65,94.945,85.363,94.945z"/>
			<path d="M85.363,112.012c-4.713,0-8.533,3.82-8.533,8.533v8.533c0,4.713,3.82,8.533,8.533,8.533s8.533-3.82,8.533-8.533v-8.533
				C93.896,115.832,90.075,112.012,85.363,112.012z"/>
			<path d="M68.296,94.945h-8.533c-4.713,0-8.533,3.82-8.533,8.533s3.82,8.533,8.533,8.533h8.533c4.713,0,8.533-3.82,8.533-8.533
				S73.009,94.945,68.296,94.945z"/>
			<path d="M110.963,94.945h-8.533c-4.713,0-8.533,3.82-8.533,8.533s3.82,8.533,8.533,8.533h8.533c4.713,0,8.533-3.82,8.533-8.533
				S115.675,94.945,110.963,94.945z"/>
			<path d="M443.763,146.145c2.263,0.001,4.434-0.898,6.035-2.499c1.6-1.6,2.499-3.771,2.499-6.035v-8.533
				c0-4.713-3.82-8.533-8.533-8.533s-8.533,3.82-8.533,8.533v8.533c-0.001,2.263,0.898,4.434,2.499,6.035
				C439.328,145.247,441.499,146.146,443.763,146.145z"/>
			<path d="M443.763,163.212c-2.263-0.001-4.434,0.898-6.035,2.499c-1.6,1.6-2.499,3.771-2.499,6.035v8.533
				c0,4.713,3.82,8.533,8.533,8.533s8.533-3.82,8.533-8.533v-8.533c0.001-2.263-0.898-4.434-2.499-6.035
				C448.197,164.11,446.026,163.211,443.763,163.212z"/>
			<path d="M426.696,146.145h-8.533c-4.713,0-8.533,3.821-8.533,8.533c0,4.713,3.82,8.533,8.533,8.533h8.533
				c4.713,0,8.533-3.821,8.533-8.533C435.229,149.966,431.409,146.145,426.696,146.145z"/>
			<path d="M469.363,146.145h-8.533c-4.713,0-8.533,3.821-8.533,8.533c0,4.713,3.821,8.533,8.533,8.533h8.533
				c4.713,0,8.533-3.821,8.533-8.533C477.896,149.966,474.075,146.145,469.363,146.145z"/>
		</g>
	</g>
</g>
<g>
</g>
<g>
</g>
<g>
</g>
<g>
</g>
<g>
</g>
<g>
</g>
<g>
</g>
<g>
</g>
<g>
</g>
<g>
</g>
<g>
</g>
<g>
</g>
<g>
</g>
<g>
</g>
<g>
</g>
</svg>
