<?xml version="1.0" encoding="iso-8859-1"?>
<!-- Generator: Adobe Illustrator 19.0.0, SVG Export Plug-In . SVG Version: 6.00 Build 0)  -->
<svg version="1.1" id="Capa_1" xmlns="http://www.w3.org/2000/svg" xmlns:xlink="http://www.w3.org/1999/xlink" x="0px" y="0px"
	 viewBox="0 0 512.001 512.001" style="enable-background:new 0 0 512.001 512.001;" xml:space="preserve">
<g>
	<g>
		<g>
			<path d="M469.954,338.567L312,391.221c-2.61,0.87-5.344,1.313-8.096,1.313h-4.903c4.054-11.114,2.883-23.463-3.188-33.617
				l-0.758-1.254c-1.607-2.616-3.45-5.079-5.506-7.36c10.013-18.981,31.735-53.972,62.783-70.872
				c40.368-1.007,71.471-12.574,92.369-34.534c36.463-38.325,34.788-76.717,33.442-107.563c-1.056-10.963-0.669-22.017,1.15-32.879
				c4.356-18.232,14.582-34.527,29.104-46.379c3.089-2.185,4.37-6.144,3.147-9.724s-4.658-5.928-8.438-5.767v0
				c-19,0.742-34.295-5.475-54.288-16.604C430.839,15.44,408.018,18.322,393.225,33c-6.975,7.339-12.625,15.832-16.699,25.101
				c-27.656-28.649-66.548-43.627-106.276-40.93c-16.236,2.053-32.219,5.762-47.7,11.067c-9.379,2.867-19.075,5.833-28.6,7.904
				c-11.439,3.214-23.534,3.275-35.004,0.175c-15.633-5.229-28.121-20.704-38.158-33.142c-2.135-2.644-5.635-3.77-8.91-2.866
				s-5.704,3.664-6.181,7.029c-4.843,34.109-4.37,68.762,1.404,102.725c6.067,35.738,17.221,62.883,34.092,82.988
				c25.721,30.637,62.667,41.933,89.129,46.013c1.695,0.261,3.316,0.357,4.998,0.587c-0.027,13.633-4.926,26.808-13.815,37.146
				c-11.559,10.401-27.05,15.297-42.487,13.429c-2.779-0.11-5.437,1.143-7.122,3.355c-1.685,2.213-2.185,5.108-1.341,7.757
				c3.475,9.884,8.244,19.263,14.182,27.895c-7.813-2.569-15.106-6.507-21.541-11.628c-15.334-12.237-34.365-18.913-53.983-18.938
				H92.294c-3.592-10.199-13.214-17.033-24.028-17.067H25.6C11.468,281.615,0.015,293.068,0,307.2v179.2
				c0.015,14.132,11.468,25.585,25.6,25.6h42.667c7.24-0.02,14.13-3.123,18.942-8.533h214.017
				c12.521,0.001,24.801-3.443,35.496-9.954l159.95-97.363c13.868-8.46,19.179-25.98,12.342-40.715
				C502.176,340.699,485.369,333.441,469.954,338.567z M76.8,486.4c-0.006,4.71-3.823,8.527-8.533,8.533H25.6
				c-4.71-0.006-8.527-3.823-8.533-8.533V307.2c0.006-4.71,3.823-8.527,8.533-8.533h42.667c4.71,0.006,8.527,3.823,8.533,8.533
				V486.4z M233.712,288.721c11.645-12.979,18.25-29.704,18.614-47.137c6.617,0.506,13.127,0.792,19.474,0.792
				c22.94,0.387,45.745-3.571,67.212-11.667c4.362-1.756,6.481-6.71,4.738-11.078c-1.743-4.367-6.69-6.502-11.063-4.772
				c-32.037,11.151-66.443,13.681-99.767,7.337c-23.567-3.633-56.346-13.546-78.654-40.121
				c-14.871-17.712-24.796-42.204-30.342-74.871c-4.381-25.766-5.549-51.975-3.479-78.029c8.891,10.435,20.271,18.458,33.088,23.325
				c14.392,4.015,29.593,4.124,44.042,0.317c10.213-2.217,20.254-5.287,29.967-8.258c14.373-4.959,29.213-8.442,44.292-10.396
				c47.3-4.387,95.904,25.225,118.287,72.054c1.314,2.751,3.997,4.592,7.036,4.829c3.04,0.237,5.975-1.165,7.7-3.679
				s1.978-5.757,0.664-8.508c-4.564-9.514-10.138-18.51-16.626-26.831c3.737-9.883,9.266-18.992,16.31-26.869
				c9.335-9.499,24.004-11.267,35.329-4.258c13.394,8.172,28.062,14.042,43.396,17.367c-10.252,12.246-17.522,26.704-21.237,42.237
				c-2.231,12.395-2.769,25.035-1.6,37.575c1.267,29.054,2.704,61.983-28.758,95.05c-18.025,18.946-45.817,28.821-82.571,29.35
				c-18.589,0.14-37.13-1.916-55.237-6.125c-4.556-1.175-9.203,1.559-10.389,6.112c-1.186,4.553,1.535,9.207,6.085,10.405
				c11.081,2.656,22.34,4.502,33.689,5.523c-19.465,17.288-35.671,37.929-47.846,60.94c-7.61-4.266-16.185-6.515-24.909-6.534
				h-41.296c-7.455-7.568-13.663-16.27-18.392-25.783C207.321,306.329,222.364,299.814,233.712,288.721z M494.663,371.697
				c-0.793,4.112-3.285,7.698-6.863,9.874l-159.954,97.367c-8.021,4.882-17.231,7.464-26.621,7.463H93.867V315.733h15.346
				c15.745,0.02,31.017,5.377,43.325,15.196c15.24,12.156,34.131,18.821,53.625,18.922l0.084,0.016l0.047-0.01l0.228,0.01h44.633
				c11.984,0.035,23.081,6.322,29.271,16.583l0.758,1.254c4.659,7.765,4.159,17.577-1.264,24.829h-51.866
				c-16.848-0.017-33.322,4.971-47.329,14.333l-6.254,4.167c-2.552,1.684-4.009,4.605-3.817,7.656
				c0.191,3.052,2.001,5.768,4.744,7.119c2.743,1.352,5.999,1.132,8.536-0.576l6.254-4.167c11.208-7.489,24.387-11.48,37.867-11.466
				h75.85c4.585,0,9.141-0.739,13.491-2.188l157.958-52.654c6.083-2.029,12.781,0.077,16.608,5.221
				C494.475,363.329,495.455,367.585,494.663,371.697z"/>
			<path d="M424.479,70.49c3.723,0.988,7.646-0.641,9.575-3.975c1.929-3.334,1.385-7.547-1.328-10.282
				c-3.422-3.159-8.696-3.159-12.117,0c-1.573,1.627-2.459,3.796-2.475,6.059C418.156,66.144,420.756,69.503,424.479,70.49z"/>
			<path d="M235.133,94.988c2.559-1.682,4.021-4.606,3.831-7.662c-0.19-3.056-2.004-5.776-4.752-7.128
				c-2.748-1.351-6.01-1.126-8.546,0.59c-18.267,12.183-62.688,3.333-78.258-1.104c-4.526-1.28-9.235,1.344-10.527,5.866
				c-1.292,4.523,1.32,9.238,5.839,10.542c17.507,4.894,35.559,7.571,53.733,7.967C209.948,104.783,223.368,101.636,235.133,94.988z
				"/>
			<path d="M247.466,122.021c0-2.263-0.899-4.433-2.5-6.033c-1.6-1.601-3.77-2.5-6.033-2.5s-4.433,0.899-6.033,2.5
				c-21.925,21.912-60,14.837-60.571,14.729c-2.99-0.596-6.071,0.448-8.082,2.739c-2.011,2.291-2.647,5.481-1.669,8.369
				c0.979,2.887,3.423,5.033,6.413,5.63c6.064,1.075,12.213,1.594,18.371,1.55c21.21,0.866,41.906-6.661,57.604-20.95
				C246.567,126.454,247.466,124.284,247.466,122.021z"/>
			<path d="M250.167,156.592c-2.147-0.719-4.492-0.554-6.517,0.458s-3.565,2.789-4.279,4.937
				c-6.421,19.271-34.033,19.763-34.592,19.767c-4.713,0.006-8.529,3.831-8.523,8.544c0.006,4.713,3.831,8.529,8.544,8.523
				c1.646,0,40.404-0.358,50.763-31.433C257.054,162.916,254.638,158.083,250.167,156.592z"/>
			<path d="M281.6,181.754c-4.713,0-8.533,3.82-8.533,8.533c-0.851,4.211-2.961,8.064-6.05,11.05
				c-3.319,3.338-3.307,8.733,0.026,12.057s8.728,3.321,12.057-0.007c6.271-6.169,10.177-14.345,11.034-23.1
				c0-2.263-0.899-4.434-2.499-6.034C286.034,182.653,283.863,181.754,281.6,181.754z"/>
		</g>
	</g>
</g>
<g>
</g>
<g>
</g>
<g>
</g>
<g>
</g>
<g>
</g>
<g>
</g>
<g>
</g>
<g>
</g>
<g>
</g>
<g>
</g>
<g>
</g>
<g>
</g>
<g>
</g>
<g>
</g>
<g>
</g>
</svg>
