<?xml version="1.0" encoding="iso-8859-1"?>
<!-- Generator: Adobe Illustrator 19.0.0, SVG Export Plug-In . SVG Version: 6.00 Build 0)  -->
<svg version="1.1" id="Capa_1" xmlns="http://www.w3.org/2000/svg" xmlns:xlink="http://www.w3.org/1999/xlink" x="0px" y="0px"
	 viewBox="0 0 512.082 512.082" style="enable-background:new 0 0 512.082 512.082;" xml:space="preserve">
<g transform="translate(-1 -1)">
	<g>
		<g>
			<path d="M487.482,239.993h-51.2v-79.174c5.262-3.024,8.514-8.623,8.533-14.692v-76.8h8.533c4.711,0.005,8.529,3.822,8.533,8.533
				v128c-4.713,0-8.533,3.821-8.533,8.533c0,4.713,3.821,8.533,8.533,8.533h8.533c2.263,0.001,4.434-0.898,6.035-2.499
				c1.6-1.6,2.499-3.771,2.499-6.035V77.859c-0.015-14.132-11.468-25.585-25.6-25.6h-8.533c0-28.277-22.923-51.2-51.2-51.2
				c-28.277,0-51.2,22.923-51.2,51.2v93.867c0.02,6.069,3.272,11.668,8.533,14.692v79.174H205.933
				c5.051-9.661,8.261-20.177,9.465-31.013c2.6-27.004-6.792-49.175-23.925-56.475c-9.611-4-20.549-3.199-29.475,2.158
				c-6.501,3.898-11.55,9.816-14.375,16.85c-6.857-3.234-14.584-4.134-22-2.563c-10.181,2.149-18.736,9.006-23.05,18.475
				c-6.912,15.491-0.609,35.604,15.74,52.567H26.682c-14.132,0.015-25.585,11.468-25.6,25.6v221.867
				c0.015,14.132,11.468,25.585,25.6,25.6h460.8c14.132-0.015,25.585-11.468,25.6-25.6V265.593
				C513.067,251.46,501.614,240.008,487.482,239.993z M359.482,52.259c0-18.851,15.282-34.133,34.133-34.133
				c18.851,0,34.133,15.282,34.133,34.133l0.001,8.53l-0.001,0.004l0.001,0.004l0.008,85.33h-68.275V52.259z M393.615,409.276
				l-22.297-66.883h44.594L393.615,409.276z M405.451,427.726h56.431v34.133h-128v-34.133h47.898l3.744,11.233
				c1.16,3.483,4.42,5.833,8.092,5.833c3.672,0,6.931-2.35,8.092-5.833L405.451,427.726z M368.015,325.326V163.193h51.2v162.133
				H368.015z M118.157,194.372c2.124-4.482,6.221-7.715,11.075-8.737c1.158-0.25,2.34-0.375,3.525-0.375
				c5.478,0.199,10.681,2.451,14.575,6.308c2.401,2.132,5.796,2.736,8.785,1.562s5.065-3.927,5.373-7.124
				c0.103-6.746,3.563-12.997,9.225-16.667c4.256-2.55,9.457-2.969,14.067-1.133c9.842,4.196,15.442,20.287,13.608,39.371
				c-2.807,16.128-9.351,31.376-19.108,44.521c-16.168-3.009-31.401-9.78-44.467-19.767
				C120.649,219.751,113.799,204.143,118.157,194.372z M496.015,487.459c-0.005,4.711-3.822,8.529-8.533,8.533h-460.8
				c-4.711-0.005-8.529-3.822-8.533-8.533V265.593c0.005-4.711,3.822-8.529,8.533-8.533H141.78
				c12.615,5.869,25.88,10.226,39.519,12.979c0.576,0.119,1.162,0.179,1.75,0.179c2.768-0.002,5.364-1.344,6.967-3.6
				c1.893-2.675,4.093-5.966,6.36-9.558h154.573v76.8c0.216,0.887,0.363,1.79,0.442,2.7l24.7,74.1h-42.208
				c-9.421,0.011-17.056,7.645-17.067,17.067v34.133c0.011,9.421,7.646,17.056,17.067,17.067h128
				c9.421-0.011,17.056-7.646,17.067-17.067v-34.133c-0.011-9.421-7.646-17.056-17.067-17.067H411.14l24.7-74.1
				c0.078-0.91,0.226-1.813,0.442-2.7v-76.8h51.2c4.711,0.005,8.529,3.822,8.533,8.533V487.459z"/>
			<path d="M291.215,274.126c-2.263-0.001-4.434,0.898-6.035,2.499c-1.6,1.6-2.499,3.771-2.499,6.035v187.733
				c0,4.713,3.82,8.533,8.533,8.533s8.533-3.82,8.533-8.533V282.659c0.001-2.263-0.898-4.434-2.499-6.035
				C295.649,275.024,293.479,274.125,291.215,274.126z"/>
			<path d="M248.549,350.926h-204.8c-4.713,0-8.533,3.82-8.533,8.533s3.82,8.533,8.533,8.533h204.8c4.713,0,8.533-3.82,8.533-8.533
				S253.261,350.926,248.549,350.926z"/>
			<path d="M248.549,427.726h-204.8c-4.713,0-8.533,3.82-8.533,8.533s3.82,8.533,8.533,8.533h204.8c4.713,0,8.533-3.82,8.533-8.533
				S253.261,427.726,248.549,427.726z"/>
			<path d="M60.815,333.859c2.263,0.001,4.434-0.898,6.035-2.499c1.6-1.6,2.499-3.771,2.499-6.035v-34.133
				c0-4.713-3.82-8.533-8.533-8.533s-8.533,3.82-8.533,8.533v34.133c-0.001,2.263,0.898,4.434,2.499,6.035
				C56.381,332.961,58.552,333.86,60.815,333.859z"/>
			<path d="M103.482,333.859c14.138,0,25.6-11.461,25.6-25.6s-11.461-25.6-25.6-25.6s-25.6,11.461-25.6,25.6
				C77.897,322.391,89.35,333.844,103.482,333.859z M103.482,299.726c4.713,0,8.533,3.82,8.533,8.533s-3.82,8.533-8.533,8.533
				s-8.533-3.82-8.533-8.533C94.953,303.548,98.771,299.731,103.482,299.726z"/>
			<path d="M163.215,333.859c14.138,0,25.6-11.461,25.6-25.6s-11.461-25.6-25.6-25.6s-25.6,11.461-25.6,25.6
				C137.631,322.391,149.083,333.844,163.215,333.859z M163.215,299.726c4.713,0,8.533,3.82,8.533,8.533s-3.82,8.533-8.533,8.533
				s-8.533-3.82-8.533-8.533C154.687,303.548,158.504,299.731,163.215,299.726z"/>
			<path d="M222.949,333.859c14.138,0,25.6-11.461,25.6-25.6s-11.461-25.6-25.6-25.6s-25.6,11.461-25.6,25.6
				C197.364,322.391,208.816,333.844,222.949,333.859z M222.949,299.726c4.713,0,8.533,3.82,8.533,8.533s-3.82,8.533-8.533,8.533
				s-8.533-3.82-8.533-8.533C214.42,303.548,218.238,299.731,222.949,299.726z"/>
			<path d="M58.577,410.429c2.965,0.785,6.122-0.082,8.271-2.27c3.179-3.164,7.779-4.439,12.133-3.362l16.408,4.105
				c5.509,1.376,11.296,1.153,16.683-0.642l12.967-4.325c2.625-0.867,5.459-0.867,8.083,0l12.967,4.325
				c5.387,1.793,11.174,2.016,16.683,0.642l23.467-5.867c1.833-0.465,3.747-0.51,5.6-0.133l37.967,7.592
				c0.555,0.11,1.118,0.166,1.684,0.166c4.384-0.006,8.05-3.333,8.481-7.696c0.43-4.363-2.515-8.342-6.814-9.204l-37.958-7.592
				c-4.336-0.865-8.81-0.76-13.1,0.308l-23.458,5.867c-2.361,0.587-4.841,0.492-7.15-0.275l-12.967-4.325
				c-6.132-2.025-12.752-2.025-18.883,0l-12.967,4.325c-2.306,0.766-4.783,0.862-7.142,0.275l-16.408-4.105
				c-10.171-2.52-20.919,0.459-28.342,7.855c-2.188,2.149-3.055,5.307-2.27,8.271C53.297,407.329,55.613,409.644,58.577,410.429z"/>
			<path d="M89.49,164.751c3.036,1.53,6.69,1.111,9.3-1.067c16.8-14.004,46.433-41.729,56.008-69.804
				c13.133-35.333,8.708-68.237-11.267-83.833c-11.02-8.452-25.401-11.162-38.741-7.3C93.647,5.999,84.088,13.234,77.932,23.076
				C69.709,14.89,58.766,10.01,47.182,9.363c-13.868-0.688-27.249,5.201-36.108,15.892C-4.835,44.968-1.685,78.018,18.99,109.259
				C34.799,134.63,69.94,154.918,89.49,164.751z M24.357,35.976c5.146-6.119,12.746-9.635,20.742-9.596
				c0.425,0,0.85,0.009,1.275,0.029c10.945,1.033,20.714,7.299,26.217,16.817c1.772,2.68,4.899,4.137,8.09,3.771
				c3.192-0.366,5.907-2.493,7.026-5.505c3.203-10.522,11.302-18.841,21.733-22.325c8.108-2.328,16.838-0.726,23.592,4.329
				c13.567,10.592,15.933,37.088,5.692,64.654c-7.742,22.692-32.592,46.629-46.575,58.771c-16.367-8.658-46.008-26.367-58.8-46.883
				C17.249,75.701,13.549,49.359,24.357,35.976z"/>
		</g>
	</g>
</g>
<g>
</g>
<g>
</g>
<g>
</g>
<g>
</g>
<g>
</g>
<g>
</g>
<g>
</g>
<g>
</g>
<g>
</g>
<g>
</g>
<g>
</g>
<g>
</g>
<g>
</g>
<g>
</g>
<g>
</g>
</svg>
